<svg width="195" height="69" viewBox="0 0 195 69" fill="none" xmlns="http://www.w3.org/2000/svg">
<path d="M5.296 68C3.888 68 2.736 67.52 1.84 66.56C1.008 65.6 0.688 64.48 0.88 63.2L11.056 5.6C11.312 4.256 12.016 3.136 13.168 2.23999C14.384 1.27999 15.728 0.799995 17.2 0.799995H43.6C48.592 0.799995 52.496 2.08 55.312 4.64C58.128 7.2 59.536 10.752 59.536 15.296C59.536 19.136 58.48 22.752 56.368 26.144C54.32 29.536 51.632 32.032 48.304 33.632L48.208 33.824C51.088 34.848 53.264 36.352 54.736 38.336C56.272 40.32 57.04 42.752 57.04 45.632C57.04 49.6 55.984 53.312 53.872 56.768C51.824 60.224 49.008 62.976 45.424 65.024C41.904 67.008 38.064 68 33.904 68H5.296ZM38.224 29.984C40.08 29.984 41.84 29.408 43.504 28.256C45.232 27.04 46.608 25.44 47.632 23.456C48.656 21.408 49.168 19.264 49.168 17.024C49.168 14.656 48.528 12.832 47.248 11.552C45.968 10.272 44.144 9.632 41.776 9.632H20.464L16.912 29.984H38.224ZM34.96 59.168C38.416 59.168 41.264 57.952 43.504 55.52C45.744 53.088 46.864 50.016 46.864 46.304C46.864 43.872 46.128 42.016 44.656 40.736C43.248 39.392 41.232 38.72 38.608 38.72H15.376L11.824 59.168H34.96ZM83.542 68.864C80.022 68.864 76.918 68.256 74.23 67.04C71.542 65.76 69.43 64 67.894 61.76C66.422 59.52 65.686 56.992 65.686 54.176C65.686 53.152 65.782 52.16 65.974 51.2L68.374 37.472C69.014 33.888 70.422 30.72 72.598 27.968C74.838 25.152 77.654 22.976 81.046 21.44C84.502 19.904 88.246 19.136 92.278 19.136C95.67 19.136 98.678 19.776 101.302 21.056C103.926 22.336 105.942 24.096 107.35 26.336C108.822 28.576 109.558 31.136 109.558 34.016C109.558 34.976 109.462 36 109.27 37.088L108.214 43.04C108.022 44.192 107.414 45.152 106.39 45.92C105.43 46.688 104.342 47.072 103.126 47.072H76.054L75.382 50.72C75.254 51.296 75.19 52.096 75.19 53.12C75.19 55.68 76.022 57.632 77.686 58.976C79.35 60.32 81.782 60.992 84.982 60.992C88.502 60.992 91.382 60.224 93.622 58.688C95.862 57.088 97.206 54.88 97.654 52.064C99.83 51.872 101.558 52.16 102.838 52.928C104.118 53.696 104.758 54.816 104.758 56.288C104.758 58.464 103.766 60.544 101.782 62.528C99.862 64.448 97.238 65.984 93.91 67.136C90.646 68.288 87.19 68.864 83.542 68.864ZM100.054 39.872L100.534 37.088C100.726 36.192 100.822 35.392 100.822 34.688C100.822 32.256 99.958 30.368 98.23 29.024C96.502 27.616 94.07 26.912 90.934 26.912C87.606 26.912 84.726 27.872 82.294 29.792C79.862 31.648 78.358 34.08 77.782 37.088L77.302 39.872H100.054ZM131.835 68.864C128.123 68.864 125.211 67.872 123.099 65.888C121.051 63.904 120.027 61.12 120.027 57.536C120.027 56.384 120.123 55.232 120.315 54.08L125.019 27.488H115.803C116.187 25.12 116.955 23.296 118.107 22.016C119.323 20.672 120.859 20 122.715 20H126.459L127.995 11.264C128.379 9.024 129.435 7.392 131.163 6.368C132.891 5.28 135.355 4.736 138.555 4.736L135.771 20H148.539C148.091 22.56 147.227 24.448 145.947 25.664C144.667 26.88 142.907 27.488 140.667 27.488H134.619L130.011 53.696C129.819 54.656 129.723 55.488 129.723 56.192C129.723 57.728 130.139 58.848 130.971 59.552C131.803 60.192 133.147 60.512 135.003 60.512C137.179 60.512 139.483 59.904 141.915 58.688C142.491 59.456 142.779 60.384 142.779 61.472C142.779 63.584 141.723 65.344 139.611 66.752C137.499 68.16 134.907 68.864 131.835 68.864ZM165.291 68.864C160.683 68.864 156.939 67.68 154.059 65.312C151.179 62.88 149.739 59.744 149.739 55.904C149.739 52.128 150.667 48.8 152.523 45.92C154.443 42.976 157.099 40.704 160.491 39.104C163.947 37.44 167.851 36.608 172.203 36.608C178.091 36.608 182.699 38.656 186.027 42.752L186.411 42.368L184.299 39.872L184.875 36.608C185.003 35.584 185.067 34.816 185.067 34.304C185.067 29.376 181.771 26.912 175.179 26.912C168.779 26.912 163.691 29.408 159.915 34.4C158.955 33.952 158.187 33.344 157.611 32.576C157.035 31.744 156.747 30.912 156.747 30.08C156.747 28.16 157.675 26.368 159.531 24.704C161.451 22.976 163.979 21.632 167.115 20.672C170.315 19.648 173.707 19.136 177.291 19.136C182.667 19.136 186.891 20.384 189.963 22.88C193.099 25.376 194.667 28.768 194.667 33.056C194.667 34.08 194.571 35.168 194.379 36.32L189.867 61.856C189.419 64.288 188.363 66.08 186.699 67.232C185.099 68.32 182.731 68.864 179.595 68.864L180.363 64.544L183.051 62.048L182.667 61.664C180.107 64.096 177.419 65.92 174.603 67.136C171.787 68.288 168.683 68.864 165.291 68.864ZM168.651 61.568C172.747 61.568 176.043 60.608 178.539 58.688C181.099 56.768 182.379 54.272 182.379 51.2C182.379 48.96 181.451 47.2 179.595 45.92C177.739 44.576 175.179 43.904 171.915 43.904C168.139 43.904 165.067 44.896 162.699 46.88C160.395 48.864 159.243 51.424 159.243 54.56C159.243 59.232 162.379 61.568 168.651 61.568Z" fill="#00B8FC"/>
</svg>
