<svg width="508" height="212" viewBox="0 0 508 212" fill="none" xmlns="http://www.w3.org/2000/svg">
<g clip-path="url(#clip0_1_2)">
<path d="M6.375 159.5C4.625 159.5 3.10833 158.917 1.825 157.75C0.658334 156.583 0.0750008 155.125 0.0750008 153.375V10.75C0.0750008 8.99999 0.658334 7.54166 1.825 6.37499C3.10833 5.20833 4.625 4.62499 6.375 4.62499H30.175C31.925 4.62499 33.325 5.14999 34.375 6.19999C35.425 7.24999 35.95 8.59166 35.95 10.225C35.95 11.7417 35.425 13.0833 34.375 14.25C33.325 15.3 31.925 15.825 30.175 15.825H14.25V148.3H30.175C31.925 148.3 33.325 148.825 34.375 149.875C35.425 151.042 35.95 152.383 35.95 153.9C35.95 155.417 35.425 156.7 34.375 157.75C33.325 158.917 31.925 159.5 30.175 159.5H6.375ZM177.502 159.5C175.752 159.5 174.352 158.917 173.302 157.75C172.252 156.7 171.727 155.417 171.727 153.9C171.727 152.383 172.252 151.042 173.302 149.875C174.352 148.825 175.752 148.3 177.502 148.3H193.427V15.825H177.502C175.752 15.825 174.352 15.3 173.302 14.25C172.252 13.0833 171.727 11.7417 171.727 10.225C171.727 8.59166 172.252 7.24999 173.302 6.19999C174.352 5.14999 175.752 4.62499 177.502 4.62499H201.477C203.227 4.62499 204.685 5.20833 205.852 6.37499C207.018 7.54166 207.602 8.99999 207.602 10.75V153.375C207.602 155.125 207.018 156.583 205.852 157.75C204.685 158.917 203.227 159.5 201.477 159.5H177.502Z" fill="#00B8FC"/>
<path d="M110.991 17.6373C91.2329 27.3781 80.6758 46.3486 87.4107 60.0091C94.1455 73.6696 115.622 76.8471 135.379 67.1063C155.137 57.3655 165.694 38.395 158.959 24.7345C152.224 11.074 130.748 7.89648 110.991 17.6373Z" fill="#F8F9FA"/>
<path d="M84.1534 195.442V160.244H83.1534V193.62L82.1534 190.744V159.839L81.1534 159.744V187.967L80.1534 184.744V159.244H79.1534V183.832L78.1534 181.744V158.827L77.1534 158.244V180.744L76.1534 178.744V157.744H75.1534V177.744L74.1534 176.244V157.079L73.1534 156.744V175.244L72.1534 173.744V155.744H71.1534V172.744L70.1534 171.744V154.744H69.1534V170.744L68.1534 169.244V153.744L67.1534 153.244V168.244L66.1534 167.244V152.744L65.1534 152.244V166.244L64.1534 164.744V151.244L63.1534 150.744V163.744L62.1534 162.744V150.244L61.1534 149.244V161.744L60.1534 160.244V148.244L59.1534 147.744V159.244L58.1534 158.244V147.244L57.1534 146.244V157.244L56.1534 155.744V145.244L55.1534 144.244V154.744L54.1534 153.744V142.744L53.1534 141.744V152.744L52.1534 150.744V140.744L51.1534 139.744V149.244L50.1534 147.744V138.244L49.1534 135.744V146.244L48.1534 144.244V132.744L47.1534 129.744V142.244L46.1534 139.744V124.744L45.1534 123.744V137.744L44.1534 134.744V122.744M44.1534 122.744H43.1534V132.121V110.744L44.1534 105.744V122.744ZM45.1534 123.089V100.744L46.1534 95.7437V107.178L47.1534 98.7437V92.7437L48.1534 94.7437V89.7437L49.1534 91.7437V87.7437" stroke="#F8F9FA"/>
<path d="M87.1535 211.725L88.1535 51.7249" stroke="#F8F9FA" stroke-width="6"/>
<path d="M54.6534 75.2437L52.6534 78.7437L50.1534 83.7437L47.6534 89.7437L45.6534 96.2437L44.6534 100.744L43.6534 105.744L42.6534 110.744L42.1534 115.744L41.6534 121.244V125.244L42.1534 129.244L42.6534 132.244L44.1534 136.744L46.6534 142.244L49.6534 147.744L52.1534 151.744L54.6534 154.744L58.6534 159.744L63.6534 165.244L67.6534 169.744L71.1534 173.744L74.6534 177.744L77.6534 182.244L80.1534 186.744L82.1534 192.244L83.6534 196.744L84.6534 200.244L85.1534 204.244L85.6534 207.744" stroke="#F8F9FA" stroke-width="2"/>
<path d="M54.6536 75.2438L53.1534 79.2437L51.6534 83.7437L50.1534 89.2437L49.1534 92.7437L48.1535 96.7437L47.1534 102.244L46.6534 107.244L46.1535 113.244V118.244V123.244L47.1535 127.744L48.1535 131.744L49.6534 135.744L51.6534 139.244L54.6536 142.744L58.6534 146.744L63.6534 150.244L69.1534 153.744L74.1534 156.244L79.1534 158.244L85.1534 159.744" stroke="#F8F9FA" stroke-width="2"/>
<path d="M55.1534 75.7437L55.6462 74.7581M55.6462 74.7581L55.6534 74.7437M55.6462 74.7581L56.1534 73.7437L55.6534 73.2437M55.6462 74.7581L54.6534 76.7437L52.6534 77.7437M55.6534 73.2437L52.6534 77.7437M55.6534 73.2437H55.1534M52.6534 77.7437L53.6534 75.7437L54.1534 74.7437M52.6534 77.7437L55.1534 73.2437M55.1534 73.2437L54.1534 74.7437M55.1534 73.2437L54.6534 73.7437L54.1534 74.7437" stroke="#F8F9FA"/>
<path d="M242.8 126.925C242.25 127.025 241.425 127.15 240.325 127.3C239.275 127.5 238.2 127.6 237.1 127.6C236 127.6 235 127.525 234.1 127.375C233.25 127.225 232.525 126.925 231.925 126.475C231.325 126.025 230.85 125.425 230.5 124.675C230.2 123.875 230.05 122.85 230.05 121.6V78.1C230.6 78 231.4 77.875 232.45 77.725C233.55 77.525 234.65 77.425 235.75 77.425C236.85 77.425 237.825 77.5 238.675 77.65C239.575 77.8 240.325 78.1 240.925 78.55C241.525 79 241.975 79.625 242.275 80.425C242.625 81.175 242.8 82.175 242.8 83.425V126.925ZM266.446 118.9C267.296 118.9 268.221 118.825 269.221 118.675C270.271 118.475 271.046 118.225 271.546 117.925V111.925L266.146 112.375C264.746 112.475 263.596 112.775 262.696 113.275C261.796 113.775 261.346 114.525 261.346 115.525C261.346 116.525 261.721 117.35 262.471 118C263.271 118.6 264.596 118.9 266.446 118.9ZM265.846 89.425C268.546 89.425 270.996 89.7 273.196 90.25C275.446 90.8 277.346 91.65 278.896 92.8C280.496 93.9 281.721 95.325 282.571 97.075C283.421 98.775 283.846 100.8 283.846 103.15V119.95C283.846 121.25 283.471 122.325 282.721 123.175C282.021 123.975 281.171 124.675 280.171 125.275C276.921 127.225 272.346 128.2 266.446 128.2C263.796 128.2 261.396 127.95 259.246 127.45C257.146 126.95 255.321 126.2 253.771 125.2C252.271 124.2 251.096 122.925 250.246 121.375C249.446 119.825 249.046 118.025 249.046 115.975C249.046 112.525 250.071 109.875 252.121 108.025C254.171 106.175 257.346 105.025 261.646 104.575L271.471 103.525V103C271.471 101.55 270.821 100.525 269.521 99.925C268.271 99.275 266.446 98.95 264.046 98.95C262.146 98.95 260.296 99.15 258.496 99.55C256.696 99.95 255.071 100.45 253.621 101.05C252.971 100.6 252.421 99.925 251.971 99.025C251.521 98.075 251.296 97.1 251.296 96.1C251.296 94.8 251.596 93.775 252.196 93.025C252.846 92.225 253.821 91.55 255.121 91C256.571 90.45 258.271 90.05 260.221 89.8C262.221 89.55 264.096 89.425 265.846 89.425ZM296.463 117.7C295.913 116.45 295.313 115.05 294.663 113.5C294.063 111.95 293.413 110.175 292.713 108.175C292.063 106.175 291.363 103.9 290.613 101.35C289.913 98.75 289.163 95.775 288.363 92.425C289.063 91.725 289.988 91.125 291.138 90.625C292.338 90.075 293.638 89.8 295.038 89.8C296.788 89.8 298.238 90.175 299.388 90.925C300.538 91.625 301.388 92.975 301.938 94.975L307.863 115.6H308.163C308.763 113.9 309.338 112.05 309.888 110.05C310.488 108.05 311.063 106 311.613 103.9C312.163 101.75 312.663 99.625 313.113 97.525C313.613 95.375 314.038 93.275 314.388 91.225C316.188 90.275 318.163 89.8 320.313 89.8C322.063 89.8 323.513 90.175 324.663 90.925C325.813 91.675 326.388 92.975 326.388 94.825C326.388 96.175 326.213 97.75 325.863 99.55C325.513 101.3 325.038 103.175 324.438 105.175C323.888 107.175 323.213 109.25 322.413 111.4C321.663 113.5 320.863 115.575 320.013 117.625C319.163 119.675 318.288 121.625 317.388 123.475C316.488 125.275 315.613 126.9 314.763 128.35C313.363 130.8 312.063 132.8 310.863 134.35C309.663 135.9 308.513 137.1 307.413 137.95C306.313 138.85 305.213 139.45 304.113 139.75C303.013 140.1 301.863 140.275 300.663 140.275C298.563 140.275 296.863 139.65 295.563 138.4C294.263 137.15 293.488 135.525 293.238 133.525C294.838 132.275 296.438 130.875 298.038 129.325C299.638 127.825 301.088 126.275 302.388 124.675C301.538 124.425 300.613 123.85 299.613 122.95C298.663 122 297.613 120.25 296.463 117.7ZM345.046 126.925C344.496 127.025 343.671 127.15 342.571 127.3C341.521 127.5 340.446 127.6 339.346 127.6C338.246 127.6 337.246 127.525 336.346 127.375C335.496 127.225 334.771 126.925 334.171 126.475C333.571 126.025 333.096 125.425 332.746 124.675C332.446 123.875 332.296 122.85 332.296 121.6V78.1C332.846 78 333.646 77.875 334.696 77.725C335.796 77.525 336.896 77.425 337.996 77.425C339.096 77.425 340.071 77.5 340.921 77.65C341.821 77.8 342.571 78.1 343.171 78.55C343.771 79 344.221 79.625 344.521 80.425C344.871 81.175 345.046 82.175 345.046 83.425V126.925ZM352.792 80.425C352.792 78.525 353.417 76.925 354.667 75.625C355.967 74.325 357.667 73.675 359.767 73.675C361.867 73.675 363.542 74.325 364.792 75.625C366.092 76.925 366.742 78.525 366.742 80.425C366.742 82.325 366.092 83.925 364.792 85.225C363.542 86.525 361.867 87.175 359.767 87.175C357.667 87.175 355.967 86.525 354.667 85.225C353.417 83.925 352.792 82.325 352.792 80.425ZM366.142 126.925C365.592 127.025 364.767 127.15 363.667 127.3C362.617 127.5 361.542 127.6 360.442 127.6C359.342 127.6 358.342 127.525 357.442 127.375C356.592 127.225 355.867 126.925 355.267 126.475C354.667 126.025 354.192 125.425 353.842 124.675C353.542 123.875 353.392 122.85 353.392 121.6V91.075C353.942 90.975 354.742 90.85 355.792 90.7C356.892 90.5 357.992 90.4 359.092 90.4C360.192 90.4 361.167 90.475 362.017 90.625C362.917 90.775 363.667 91.075 364.267 91.525C364.867 91.975 365.317 92.6 365.617 93.4C365.967 94.15 366.142 95.15 366.142 96.4V126.925ZM405.009 116.125C405.009 119.925 403.584 122.9 400.734 125.05C397.884 127.2 393.684 128.275 388.134 128.275C386.034 128.275 384.084 128.125 382.284 127.825C380.484 127.525 378.934 127.075 377.634 126.475C376.384 125.825 375.384 125.025 374.634 124.075C373.934 123.125 373.584 122 373.584 120.7C373.584 119.5 373.834 118.5 374.334 117.7C374.834 116.85 375.434 116.15 376.134 115.6C377.584 116.4 379.234 117.125 381.084 117.775C382.984 118.375 385.159 118.675 387.609 118.675C389.159 118.675 390.334 118.45 391.134 118C391.984 117.55 392.409 116.95 392.409 116.2C392.409 115.5 392.109 114.95 391.509 114.55C390.909 114.15 389.909 113.825 388.509 113.575L386.259 113.125C381.909 112.275 378.659 110.95 376.509 109.15C374.409 107.3 373.359 104.675 373.359 101.275C373.359 99.425 373.759 97.75 374.559 96.25C375.359 94.75 376.484 93.5 377.934 92.5C379.384 91.5 381.109 90.725 383.109 90.175C385.159 89.625 387.409 89.35 389.859 89.35C391.709 89.35 393.434 89.5 395.034 89.8C396.684 90.05 398.109 90.45 399.309 91C400.509 91.55 401.459 92.275 402.159 93.175C402.859 94.025 403.209 95.05 403.209 96.25C403.209 97.4 402.984 98.4 402.534 99.25C402.134 100.05 401.609 100.725 400.959 101.275C400.559 101.025 399.959 100.775 399.159 100.525C398.359 100.225 397.484 99.975 396.534 99.775C395.584 99.525 394.609 99.325 393.609 99.175C392.659 99.025 391.784 98.95 390.984 98.95C389.334 98.95 388.059 99.15 387.159 99.55C386.259 99.9 385.809 100.475 385.809 101.275C385.809 101.825 386.059 102.275 386.559 102.625C387.059 102.975 388.009 103.3 389.409 103.6L391.734 104.125C396.534 105.225 399.934 106.75 401.934 108.7C403.984 110.6 405.009 113.075 405.009 116.125ZM423.923 114.475C423.923 115.775 424.323 116.7 425.123 117.25C425.973 117.8 427.148 118.075 428.648 118.075C429.398 118.075 430.173 118.025 430.973 117.925C431.773 117.775 432.473 117.6 433.073 117.4C433.523 117.95 433.898 118.575 434.198 119.275C434.548 119.925 434.723 120.725 434.723 121.675C434.723 123.575 433.998 125.125 432.548 126.325C431.148 127.525 428.648 128.125 425.048 128.125C420.648 128.125 417.248 127.125 414.848 125.125C412.498 123.125 411.323 119.875 411.323 115.375V83.275C411.873 83.125 412.648 82.975 413.648 82.825C414.698 82.625 415.798 82.525 416.948 82.525C419.148 82.525 420.848 82.925 422.048 83.725C423.298 84.475 423.923 86.1 423.923 88.6V93.4H433.748C434.048 93.95 434.323 94.65 434.573 95.5C434.873 96.3 435.023 97.2 435.023 98.2C435.023 99.95 434.623 101.225 433.823 102.025C433.073 102.775 432.048 103.15 430.748 103.15H423.923V114.475ZM460.038 128.2C457.088 128.2 454.338 127.8 451.788 127C449.288 126.15 447.088 124.9 445.188 123.25C443.338 121.6 441.863 119.525 440.763 117.025C439.713 114.525 439.188 111.6 439.188 108.25C439.188 104.95 439.713 102.125 440.763 99.775C441.863 97.375 443.288 95.425 445.038 93.925C446.788 92.375 448.788 91.25 451.038 90.55C453.288 89.8 455.588 89.425 457.938 89.425C460.588 89.425 462.988 89.825 465.138 90.625C467.338 91.425 469.213 92.525 470.763 93.925C472.363 95.325 473.588 97 474.438 98.95C475.338 100.9 475.788 103.025 475.788 105.325C475.788 107.025 475.313 108.325 474.363 109.225C473.413 110.125 472.088 110.7 470.388 110.95L451.863 113.725C452.413 115.375 453.538 116.625 455.238 117.475C456.938 118.275 458.888 118.675 461.088 118.675C463.138 118.675 465.063 118.425 466.863 117.925C468.713 117.375 470.213 116.75 471.363 116.05C472.163 116.55 472.838 117.25 473.388 118.15C473.938 119.05 474.213 120 474.213 121C474.213 123.25 473.163 124.925 471.063 126.025C469.463 126.875 467.663 127.45 465.663 127.75C463.663 128.05 461.788 128.2 460.038 128.2ZM457.938 98.725C456.738 98.725 455.688 98.925 454.788 99.325C453.938 99.725 453.238 100.25 452.688 100.9C452.138 101.5 451.713 102.2 451.413 103C451.163 103.75 451.013 104.525 450.963 105.325L463.788 103.225C463.638 102.225 463.088 101.225 462.138 100.225C461.188 99.225 459.788 98.725 457.938 98.725ZM494.675 126.925C494.175 127.075 493.375 127.225 492.275 127.375C491.225 127.525 490.125 127.6 488.975 127.6C487.875 127.6 486.875 127.525 485.975 127.375C485.125 127.225 484.4 126.925 483.8 126.475C483.2 126.025 482.725 125.425 482.375 124.675C482.075 123.875 481.925 122.85 481.925 121.6V99.1C481.925 97.95 482.125 96.975 482.525 96.175C482.975 95.325 483.6 94.575 484.4 93.925C485.2 93.275 486.175 92.7 487.325 92.2C488.525 91.65 489.8 91.175 491.15 90.775C492.5 90.375 493.9 90.075 495.35 89.875C496.8 89.625 498.25 89.5 499.7 89.5C502.1 89.5 504 89.975 505.4 90.925C506.8 91.825 507.5 93.325 507.5 95.425C507.5 96.125 507.4 96.825 507.2 97.525C507 98.175 506.75 98.775 506.45 99.325C505.4 99.325 504.325 99.375 503.225 99.475C502.125 99.575 501.05 99.725 500 99.925C498.95 100.125 497.95 100.35 497 100.6C496.1 100.8 495.325 101.05 494.675 101.35V126.925Z" fill="#F8F9FA"/>
</g>
<defs>
<clipPath id="clip0_1_2">
<rect width="508" height="212" fill="white"/>
</clipPath>
</defs>
</svg>
