<svg xmlns="http://www.w3.org/2000/svg" xmlns:xlink="http://www.w3.org/1999/xlink" width="500" zoomAndPan="magnify" viewBox="0 0 375 374.999991" height="500" preserveAspectRatio="xMidYMid meet" version="1.0"><defs><clipPath id="ab9972e3f6"><path d="M 22.5 0 L 352.5 0 L 352.5 375 L 22.5 375 Z M 22.5 0 " clip-rule="nonzero"/></clipPath></defs><g clip-path="url(#ab9972e3f6)"><path fill="#e44d26" d="M 322.4375 337.160156 L 187.296875 374.625 L 52.53125 337.214844 L 22.5 0.371094 L 352.5 0.371094 Z M 322.4375 337.160156 " fill-opacity="1" fill-rule="nonzero"/></g><path fill="#f16529" d="M 322.390625 27.914062 L 187.5 27.914062 L 187.5 345.988281 L 296.699219 315.714844 Z M 322.390625 27.914062 " fill-opacity="1" fill-rule="nonzero"/><path fill="#ebebeb" d="M 187.5 73.242188 L 84.050781 73.242188 L 85.039062 84.324219 L 95.195312 198.171875 L 187.644531 198.171875 L 187.644531 156.859375 L 132.976562 156.859375 L 129.199219 114.554688 L 187.644531 114.554688 L 187.644531 73.242188 Z M 187.5 73.242188 " fill-opacity="1" fill-rule="nonzero"/><path fill="#ebebeb" d="M 187.453125 307.1875 L 187.644531 307.136719 L 187.644531 264.152344 L 187.460938 264.199219 L 141.453125 251.777344 L 138.511719 218.828125 L 97.039062 218.828125 L 102.828125 283.695312 Z M 187.453125 307.1875 " fill-opacity="1" fill-rule="nonzero"/><path fill="#ffffff" d="M 272.816406 276.714844 L 282.523438 167.953125 L 283.53125 156.859375 L 187.5 156.859375 L 187.5 198.171875 L 238.371094 198.171875 L 233.578125 251.75 L 187.5 264.1875 L 187.5 307.167969 L 272.191406 283.695312 Z M 272.816406 276.714844 " fill-opacity="1" fill-rule="nonzero"/><path fill="#ffffff" d="M 287.289062 114.554688 L 288.117188 105.269531 L 290 84.324219 L 290.988281 73.242188 L 187.5 73.242188 L 187.5 114.554688 Z M 287.289062 114.554688 " fill-opacity="1" fill-rule="nonzero"/></svg>