<svg xmlns="http://www.w3.org/2000/svg" xmlns:xlink="http://www.w3.org/1999/xlink" width="500" zoomAndPan="magnify" viewBox="0 0 375 374.999991" height="500" preserveAspectRatio="xMidYMid meet" version="1.0"><path fill="#599636" d="M 186.597656 51.429688 L 194.558594 66.398438 C 196.347656 69.160156 198.285156 71.605469 200.570312 73.882812 C 207.273438 80.511719 213.5 87.558594 219.25 95.03125 C 232.738281 112.761719 241.835938 132.457031 248.332031 153.753906 C 252.230469 166.761719 254.34375 180.109375 254.503906 193.605469 C 255.15625 233.949219 241.34375 268.59375 213.488281 297.382812 C 208.953125 301.957031 204.074219 306.132812 198.855469 309.90625 C 196.097656 309.90625 194.792969 307.789062 193.652344 305.839844 C 191.566406 302.191406 190.210938 298.285156 189.589844 294.125 C 188.609375 289.246094 187.96875 284.363281 188.285156 279.324219 L 188.285156 277.046875 C 188.0625 276.5625 185.628906 52.578125 186.597656 51.429688 Z M 186.597656 51.429688 " fill-opacity="1" fill-rule="nonzero"/><path fill="#6cac48" d="M 186.597656 50.933594 C 186.273438 50.28125 185.945312 50.777344 185.617188 51.09375 C 185.777344 54.359375 184.640625 57.269531 182.859375 60.050781 C 180.902344 62.816406 178.3125 64.933594 175.710938 67.210938 C 161.261719 79.734375 149.890625 94.863281 140.785156 111.785156 C 128.664062 134.554688 122.421875 158.960938 120.648438 184.652344 C 119.839844 193.921875 123.578125 226.621094 126.492188 236.058594 C 134.453125 261.105469 148.753906 282.097656 167.273438 300.3125 C 171.824219 304.699219 176.6875 308.769531 181.722656 312.679688 C 183.1875 312.679688 183.34375 311.375 183.679688 310.402344 C 184.324219 308.324219 184.8125 306.207031 185.144531 304.054688 L 188.40625 279.660156 Z M 186.597656 50.933594 " fill-opacity="1" fill-rule="nonzero"/><path fill="#c2bfbf" d="M 194.558594 319.820312 C 194.882812 316.085938 196.675781 312.988281 198.621094 309.898438 C 196.664062 309.085938 195.210938 307.472656 194.074219 305.671875 C 193.089844 303.960938 192.28125 302.171875 191.648438 300.304688 C 189.375 293.472656 188.890625 286.304688 188.238281 279.324219 L 188.238281 275.097656 C 187.425781 275.75 187.257812 281.273438 187.257812 282.097656 C 186.785156 289.484375 185.808594 296.804688 184.332031 304.054688 C 183.847656 306.988281 183.523438 309.90625 181.722656 312.511719 C 181.722656 312.839844 181.722656 313.164062 181.882812 313.648438 C 184.808594 322.273438 185.609375 331.054688 186.105469 340.007812 L 186.105469 343.273438 C 186.105469 347.171875 185.945312 346.351562 189.179688 347.660156 C 190.484375 348.144531 191.9375 348.3125 193.242188 349.28125 C 194.222656 349.28125 194.382812 348.46875 194.382812 347.816406 L 193.894531 342.449219 L 193.894531 327.480469 C 193.738281 324.867188 194.222656 322.273438 194.550781 319.828125 Z M 194.558594 319.820312 " fill-opacity="1" fill-rule="nonzero"/></svg>